<?xml version="1.0" standalone="no"?>
<!DOCTYPE svg PUBLIC "-//W3C//DTD SVG 20010904//EN"
 "http://www.w3.org/TR/2001/REC-SVG-20010904/DTD/svg10.dtd">
<svg version="1.0" xmlns="http://www.w3.org/2000/svg"
 width="300.000000pt" height="300.000000pt" viewBox="0 0 300.000000 300.000000"
 preserveAspectRatio="xMidYMid meet">
<metadata>
Created by potrace 1.11, written by Peter Selinger 2001-2013
</metadata>
<g transform="translate(0.000000,300.000000) scale(0.100000,-0.100000)"
fill="#000000" stroke="none">
<path d="M272 2748 c-17 -17 -17 -2549 0 -2566 17 -17 204 -16 215 1 4 6 8
268 9 582 l1 570 32 83 c62 158 169 281 296 342 75 36 98 41 205 46 172 7 298
-59 364 -191 53 -108 55 -129 56 -799 0 -437 4 -623 11 -633 16 -19 202 -18
218 1 8 10 11 192 11 662 -1 743 -2 762 -79 908 -93 177 -243 265 -466 272
-231 7 -415 -70 -573 -241 -33 -36 -65 -65 -71 -65 -8 0 -11 145 -11 508 0
382 -3 511 -12 520 -16 16 -190 16 -206 0z"/>
<path d="M2580 2722 c-59 -8 -173 -44 -209 -66 -124 -79 -169 -223 -170 -553
l-1 -123 -150 0 -150 0 0 -30 0 -30 150 0 150 0 0 -869 c0 -819 1 -869 18
-873 43 -12 42 -40 42 873 l0 869 235 0 235 0 0 30 0 30 -235 0 -236 0 2 148
c5 396 91 517 384 538 101 7 102 7 100 36 -2 22 -6 23 -71 23 -38 0 -80 -1
-94 -3z"/>
</g>
</svg>
